<?xml version="1.0" standalone="yes"?>
<svg xmlns="http://www.w3.org/2000/svg" width="1840" height="399">
<path style="fill:#ffffff; stroke:none;" d="M0 0L0 399L1840 399L1840 0L0 0z"/>
<path style="fill:#fae8ed; stroke:none;" d="M1445 30C1447.05 30.8742 1448.75 30.9528 1451 31C1448.95 30.1257 1447.25 30.0472 1445 30z"/>
<path style="fill:#f5c6d8; stroke:none;" d="M1314 224C1312.41 213.208 1307.77 202.763 1305.6 192C1303.92 183.661 1302.56 175.5 1301.98 167C1301.52 160.361 1300.58 149.883 1296.99 144.148C1293.86 139.166 1286.9 141.361 1283.85 145.214C1278.91 151.459 1280.22 160.111 1277.08 167C1274.87 171.837 1270.49 175.623 1267.52 180C1260.99 189.617 1255.27 200.152 1247.7 209C1242.88 214.632 1234.68 225.973 1226.06 223.681C1218.47 221.666 1221.31 210.139 1223 205C1227.12 192.441 1231.21 180.185 1236.43 168C1238.61 162.892 1241.98 158.206 1243.87 153C1247.13 143.98 1241.24 134.48 1231 137.804C1223.29 140.307 1215.79 143.773 1208 146C1207.98 142.99 1208.43 129.265 1203.16 130.752C1200.55 131.487 1199.61 134.765 1198.84 137.001C1196.79 142.916 1197.34 149.038 1195.56 155C1191.71 167.934 1182.32 177.29 1171 184C1169.44 172.452 1162.08 160.352 1150 157.533C1146.28 156.665 1142.72 157.637 1139 157.911C1135.17 158.193 1126.57 158.056 1124.07 161.6C1122.44 163.895 1123.91 168.38 1123.99 171C1124.49 188.029 1140.9 198.954 1157 199C1156.6 218.459 1145.84 232.457 1130 242.691C1125.21 245.788 1116.08 253.495 1110.65 247.682C1107.72 244.548 1106.47 239 1105.19 235C1100.72 220.958 1102.33 207.401 1102.96 193C1103.57 179.146 1102.86 164.813 1101.91 151C1101.16 140.064 1099.62 127.804 1102.43 117C1103.97 111.079 1108.99 105.49 1111.75 100C1118.91 85.7782 1125.39 69.2365 1124.98 53C1124.79 45.0971 1116.76 31.2336 1107.01 34.7577C1103.34 36.0885 1101.11 39.7557 1099.31 43C1092.2 55.8065 1090.38 68.902 1087.55 83C1085.41 93.693 1082.87 104.29 1080.8 115C1079.93 119.553 1079.79 124.642 1078.19 129C1075.96 135.051 1071.3 140.791 1067.57 146C1063.54 151.639 1056.23 157.515 1053.88 164C1052.38 168.134 1056.08 173.463 1060.41 170.238C1066.34 165.818 1071.87 157.622 1075 151C1076.95 158.707 1074.93 169.064 1074.17 177C1072.82 191.215 1072 205.714 1072 220C1072 238.918 1079.17 267.375 1100 273.362C1121.76 279.617 1146.16 258.987 1157.84 243C1164.48 233.921 1168.13 223.943 1170.33 213C1171.53 207.05 1170.05 199.224 1175.15 194.877C1180.64 190.2 1186.84 187.247 1191.99 181.999C1195.32 178.592 1198.28 174.937 1200.97 171C1202.79 168.346 1204.36 164.73 1207.21 163.024C1210.84 160.854 1216.86 160.804 1221 160C1216.9 169.239 1215.66 179.239 1213.35 189C1210.28 201.957 1202.32 219.536 1214.19 230.671C1221.01 237.072 1232.67 236.038 1239.91 230.775C1246.33 226.111 1251.29 219.137 1256.2 213C1263.76 203.549 1272.74 193.472 1277 182C1278.55 187.233 1277.6 192.637 1278.44 198C1280.43 210.723 1285.46 226.272 1294.19 235.985C1301.38 243.986 1312.33 246.865 1322 240.995C1325.73 238.733 1328.78 235.3 1331.56 232C1335.49 227.341 1339.38 222.52 1342 217C1348.17 229.933 1364.72 240.04 1379 233.892C1385.72 231 1390.63 225.022 1396 220.285C1402.05 214.949 1408.79 209.587 1412 202L1414 202C1417.68 214.731 1432.14 229.515 1445 233.211C1463.47 238.52 1491.06 227.811 1499 210C1502.5 216.56 1505.18 223.556 1511.09 228.471C1532.76 246.489 1566.89 229.439 1587 217.4C1591.96 214.432 1597.32 211.755 1602 208.366C1606.69 204.97 1610.26 200.338 1615 197C1616.98 203.255 1621.05 209.04 1625.3 214C1635.25 225.602 1648.26 229 1663 229C1668.24 229 1673.84 229.542 1679 228.485C1704.31 223.305 1724.71 203.878 1741 185C1748.58 176.212 1756.69 167.834 1762.95 158C1764.8 155.092 1768.35 150.765 1767.29 147.059C1766.2 143.272 1762.12 142.919 1759 144.152C1752.68 146.647 1746.94 152.491 1742 157C1725.22 172.305 1708.6 189.162 1688.17 199.625C1679.41 204.111 1667.99 207.901 1658 205.606C1647.73 203.245 1633.81 185.065 1637.62 174C1639.55 168.374 1646.19 163.724 1649.76 159C1657.05 149.356 1663.09 138.137 1669.79 128C1676.15 118.378 1679.43 100.858 1664 99.1736C1631.6 95.6382 1618.68 130.816 1614.08 157C1612.78 164.433 1614.29 173.835 1611.4 180.83C1609.43 185.603 1602.89 190.431 1599 193.674C1593.8 198.01 1588.02 200.516 1582 203.394C1569.71 209.271 1557.1 216.08 1543 211.826C1533.26 208.886 1526.23 191.692 1528.31 182C1529.77 175.156 1537.51 168.511 1541.63 163C1549.74 152.127 1557.25 140.533 1562.57 128C1567.45 116.504 1572.35 100.539 1556 96.6798C1522.05 88.6684 1502.56 131.426 1498.3 159C1497.37 165.002 1497 170.935 1497 177C1497 180.36 1497.69 184.72 1496.4 187.895C1494.99 191.329 1491.11 192.613 1488 194.025C1481.17 197.125 1470.01 206.102 1462.04 204.188C1458.73 203.394 1456.52 199.606 1454.75 197C1449.55 189.389 1446.55 181.937 1444.58 173C1442.93 165.559 1441.75 156.574 1443.39 149C1445.96 137.113 1453.8 125.172 1458.57 114C1464.01 101.285 1467.61 87.6756 1469.57 74C1471.87 57.963 1469.29 29.9556 1447 31.0479C1441.18 31.3329 1437.51 35.1349 1434.8 40C1429.76 49.0407 1426.91 59.4734 1422.85 69C1415.34 86.6292 1411.9 104.297 1408.54 123C1406.93 131.935 1404.71 140.913 1404.09 150C1403.59 157.322 1403.21 165.794 1404.67 173C1405.75 178.406 1409.47 186.469 1408.12 191.91C1406.63 197.939 1398.26 203.837 1394 207.985C1390.24 211.644 1386.01 214.641 1382 218C1378.97 220.535 1375.19 224.152 1371 224.382C1361.01 224.931 1353.64 213.4 1352.28 205C1351.29 198.922 1353.94 193.714 1355.57 188C1358.41 178.043 1361.38 167.272 1362.71 157C1363.67 149.65 1362.45 134.029 1351 136.478C1341.36 138.539 1338.22 157.896 1338.01 166C1337.75 176.565 1339.82 188.637 1337.72 199C1335.74 208.794 1323.16 220.913 1314 224z"/>
<path style="fill:#ffffff; stroke:none;" d="M1448 41C1440.71 68.5338 1444 95.9282 1444 124C1447.56 119.706 1449.43 114.114 1451.58 109C1457.56 94.7274 1461.93 78.5615 1462 63C1462.05 52.041 1459.85 43.6871 1448 41M1111 45C1104.41 61.9974 1104 76.9599 1104 95C1112.32 86.767 1115.71 70.3645 1115.99 59C1116.12 53.3207 1116.57 47.9209 1111 45z"/>
<path style="fill:#faebf0; stroke:none;" d="M1116 52L1116 60C1117.16 57.2304 1117.16 54.7697 1116 52z"/>
<path style="fill:#fbecf1; stroke:none;" d="M1470 58L1470 66C1471.16 63.2304 1471.16 60.7697 1470 58z"/>
<path style="fill:#f9e0e8; stroke:none;" d="M1103 94L1103 97L1105 96C1104.45 94.3649 1104.64 94.545 1103 94z"/>
<path style="fill:#fdedf2; stroke:none;" d="M1443 99L1443 110C1444.43 106.59 1444.43 102.41 1443 99z"/>
<path style="fill:#ffffff; stroke:none;" d="M1528 165C1540.52 155.785 1549.49 138.418 1554.62 124C1555.88 120.472 1560.31 110.102 1555.68 107.742C1548.47 104.062 1542.51 112.504 1540.04 118C1533.18 133.275 1528 148.137 1528 165z"/>
<path style="fill:#fae0e5; stroke:none;" d="M1660 108C1662.05 108.874 1663.75 108.953 1666 109C1663.95 108.126 1662.25 108.047 1660 108z"/>
<path style="fill:#ffffff; stroke:none;" d="M1637 157C1647.12 149.718 1650.18 139.17 1656.16 129.129C1657.7 126.558 1660.54 125.285 1662.26 122.872C1665.03 118.99 1665.95 113.633 1666 109C1662.37 109 1658.43 108.619 1655 110.009C1637.76 116.991 1638.9 141.997 1637 157z"/>
<path style="fill:#9acff9; stroke:none;" d="M144 121.549C136.522 123.144 132.008 129.695 132.008 137C132.008 139.706 131.926 143.246 134.434 144.972C137.264 146.92 142.852 146.17 146 145.481C149.478 144.721 152.949 143.241 154.682 139.945C158.808 132.102 154.297 119.352 144 121.549z"/>
<path style="fill:#fbe9ef; stroke:none;" d="M1101 126L1101 148C1103.22 142.713 1103.22 131.287 1101 126z"/>
<path style="fill:#cdc2fa; stroke:none;" d="M617 224C607.959 227.507 598.675 231.691 589 233C587.309 211.572 592.712 192.551 598.424 172C600.012 166.288 605.253 155.838 597.941 152.042C592.949 149.451 587.327 154.134 583 156.1C577.399 158.644 572.046 158.999 566 159C566.113 153.532 568.34 147.165 565.543 142.059C563.855 138.977 559.723 136.779 556.434 139.029C552.073 142.012 556.196 147.269 556.637 151C557.472 158.08 553.913 167.197 552.116 174C545.362 199.568 525.886 219.408 507 236.91C495.714 247.369 481.653 254.918 468.001 243.671C452.431 230.843 457.847 212.421 463.656 196C465.896 189.666 467.955 182.712 471.559 177C474.985 171.571 480.879 167.34 483.809 161.715C485.383 158.694 484.178 155.445 480.891 154.434C472.697 151.913 460.232 158.618 454.015 163.529C446.446 169.508 441.907 178.357 436.366 186C432.138 191.832 426.11 196.03 421 201.015C416.007 205.885 411.389 212.02 405 215C405.828 217.058 405.952 220.533 407.752 221.972C410.187 223.918 413.838 222.349 415.91 220.682C421.036 216.56 425.322 210.678 430 206C427.725 218.256 426.98 235.479 432.324 247C441.921 267.692 470.808 275.202 491 266.907C504.195 261.487 513.156 250.375 522.286 240C539.597 220.328 559.337 199.182 563 172C569.114 171.501 575.109 169.659 581 168C573.567 189.83 563.327 209.072 565.09 233C566.319 249.68 580.48 258.594 596 253.239C600.916 251.543 604.707 248.19 609 245.405C613.379 242.564 618.376 240.433 623 238C631.101 263.379 663.406 267.176 685 258.123C695.816 253.589 704.821 243.179 713 235C724.836 223.163 736.335 211.317 746.497 198C754.481 187.536 760.328 176.022 769 166C767.849 174.917 766.208 184.693 762.663 193C756.615 207.174 748.005 219.025 748 235C747.998 239.734 747.636 244.733 750.089 248.996C754.265 256.25 769.795 261.599 771.212 249.001C771.485 246.576 769.939 244.133 769 242C771.667 239.669 770.813 236.348 771.174 233C771.755 227.596 773.643 222.304 774.79 217C776.443 209.355 777.263 200.207 780.224 193C784.787 181.889 795.08 171.713 806 167C806.185 175.894 809.357 183.939 808.961 193C808.425 205.223 805.003 218.815 807.228 231C808.554 238.259 816.856 241.36 822.471 236.347C831.004 228.728 826.545 211.175 828.329 201C831.498 182.924 848.241 166.808 865 161C864.929 169.576 862.128 177.656 860.449 186C857.805 199.144 855.371 216.833 858.761 230C861.875 242.097 873.865 252.979 887 248.005C895.366 244.838 901.464 237.561 909 233C910.412 240.824 916.033 246.49 922 251.384C936.636 263.391 954.719 267.422 973 261.48C986.943 256.948 998.122 247.747 1009 238.282C1024.62 224.694 1038.5 210.26 1050 193C1056.02 183.959 1063.11 174.58 1066 164C1061.13 167.796 1055.88 175.108 1053 165C1034.6 182.011 1018.2 201.343 998 216.37C991.16 221.46 983.899 227.198 976 230.535C972.128 232.171 967.234 234.293 963 234.49C954.184 234.9 939.301 225.868 937.303 216.999C935.491 208.954 941.921 204.088 947 199C949.913 196.082 952.737 193.132 955.421 190C965.84 177.839 989.867 156.246 973.699 140.214C971.787 138.317 969.523 137.014 967 136.105C963.852 134.971 960.335 134.308 957 134.09C946.471 133.404 938.13 140.217 931.805 148.001C920.065 162.448 911.455 179.65 907.808 198C905.791 208.146 909.51 221.532 898.999 226.751C897.215 227.637 895.115 228.917 893.039 228.763C890.854 228.601 889.403 226.873 887.718 225.7C881.227 221.18 880.917 217.85 880.17 210C878.562 193.11 883.404 175.759 880.786 159C878.642 145.273 865.555 146.304 856 151.32C851.754 153.549 847.68 156.205 844.004 159.286C837.682 164.585 832.561 170.962 827 177C825.754 172.611 824.605 168.062 822.468 164C821.305 161.79 819.791 159.831 817.956 158.133C804.721 145.887 790.784 161.828 782 171C782 164.04 783.587 145.086 771 149.858C769.174 150.55 767.559 151.752 766.001 152.9C764.122 154.284 762.044 155.754 760.603 157.615C757.802 161.23 757.321 166.164 754.33 170C737.13 192.056 716.913 210.06 693 224.4C680.405 231.953 664.972 240.582 653.529 225.996C651.366 223.24 647.765 218.733 649.161 215C651.235 209.452 658.455 204.532 662.246 200C671.508 188.93 681.813 175.826 686.484 162C689.228 153.877 691.778 141.684 683.895 135.513C672.156 126.324 655.764 135.477 647.015 144.039C632.144 158.592 621.754 178.691 617.601 199C615.98 206.927 614.669 216.116 617 224z"/>
<path style="fill:#b8ddfb; stroke:none;" d="M131 134L131 141C132.059 138.466 132.059 136.534 131 134z"/>
<path style="fill:#f9dee7; stroke:none;" d="M1638 137L1638 144C1639.06 141.466 1639.06 139.534 1638 137z"/>
<path style="fill:#ffffff; stroke:none;" d="M648 197C656.263 193.069 661.493 184.4 666.344 177C670.011 171.407 673.946 166.142 676.688 160C678.203 156.605 682.161 147.174 678.396 144.179C671.854 138.975 665.683 148.543 663 153C654.689 166.81 651.04 181.324 648 197z"/>
<path style="fill:#bddefc; stroke:none;" d="M136 146C138.052 146.874 139.747 146.953 142 147C139.948 146.126 138.253 146.047 136 146z"/>
<path style="fill:#ffffff; stroke:none;" d="M938 195C948.396 187.677 958.752 175.003 965.124 164C967.218 160.385 971.965 153.636 967.678 150.036C962.305 145.525 955.32 151.491 952.468 156.005C945.464 167.089 939.074 181.853 938 195M1353 148C1350.66 156.763 1349 164.868 1349 174C1352.96 167.515 1356.04 155.25 1353 148z"/>
<path style="fill:#fbe1ea; stroke:none;" d="M1354 148L1354 158C1355.35 154.793 1355.35 151.207 1354 148z"/>
<path style="fill:#e2ddfd; stroke:none;" d="M803 153C805.052 153.874 806.747 153.953 809 154C806.948 153.126 805.253 153.047 803 153z"/>
<path style="fill:#fceaef; stroke:none;" d="M1135 157C1137.61 158.098 1140.16 157.993 1143 158C1140.39 156.902 1137.84 157.007 1135 157z"/>
<path style="fill:#e1dbfd; stroke:none;" d="M566 158C569.432 159.44 573.3 159 577 159C573.568 157.56 569.7 158 566 158z"/>
<path style="fill:#ded8fc; stroke:none;" d="M758 159L758 163C758.71 161.24 758.71 160.76 758 159z"/>
<path style="fill:#e6e2fd; stroke:none;" d="M881 162L881 175C882.591 171.209 882.591 165.791 881 162z"/>
<path style="fill:#f9e8ee; stroke:none;" d="M1527 162L1527 167C1528.2 164.903 1528.14 164.154 1527 162z"/>
<path style="fill:#f7e1e8; stroke:none;" d="M1443 163L1443 169C1443.95 166.715 1443.95 165.285 1443 163z"/>
<path style="fill:#ffffff; stroke:none;" d="M1133 166C1133 169.925 1132.46 174.337 1134.14 178C1137.82 186.043 1149.7 189.925 1158 190C1157.98 182.046 1156.05 171.931 1147.98 168.14C1143.81 166.176 1137.58 166.362 1133 166z"/>
<path style="fill:#fbe3eb; stroke:none;" d="M1348 167L1348 177C1349.79 173.865 1349.41 170.282 1348 167z"/>
<path style="fill:#fadfe8; stroke:none;" d="M1132 168L1132 176C1133.16 173.23 1133.16 170.77 1132 168z"/>
<path style="fill:#f9dde6; stroke:none;" d="M1337 168L1337 190C1339.22 184.713 1339.22 173.287 1337 168z"/>
<path style="fill:#fae8ed; stroke:none;" d="M1074 169L1074 175C1074.95 172.715 1074.95 171.285 1074 169z"/>
<path style="fill:#fae3eb; stroke:none;" d="M1302 169L1302 173C1302.71 171.24 1302.71 170.76 1302 169z"/>
<path style="fill:#f9d7e2; stroke:none;" d="M1496 171L1496 190C1498.02 185.187 1498.02 175.813 1496 171z"/>
<path style="fill:#f9d9e3; stroke:none;" d="M1637 172L1637 180C1638.16 177.23 1638.16 174.77 1637 172z"/>
<path style="fill:#c8e4fb; stroke:none;" d="M328 175C331.959 176.661 336.737 176 341 176C337.041 174.339 332.263 175 328 175z"/>
<path style="fill:#9acff9; stroke:none;" d="M47 301C47.194 299.519 47.6976 297.94 46.7307 296.579C45.2125 294.441 40.6116 294.677 39.733 297.318C39.002 299.515 40.5813 302.247 41.7685 303.985C46.4952 310.902 53.5823 310 61 310C81.6786 310 96.8931 298.107 111 284C112.714 304.989 130.796 321.511 152 312.471C160.874 308.689 166.886 300.957 173.17 294C180.998 285.333 190.391 275.903 195 265C196.536 270.197 196.003 275.717 197.493 281C199.295 287.389 204.204 293.394 209.039 297.815C229.557 316.573 259.25 292.57 274 277.996C277.872 274.17 281.863 270.454 285 266C290.714 272.604 295.341 278.981 303 283.547C334.202 302.15 366.679 280.846 390 260.285C397.023 254.094 402.379 247.28 408.2 240C414.066 232.663 419.891 225.785 420 216C415.596 220.051 406.146 227.363 407 216C399.031 217.9 393.656 226.468 388 231.985C383.626 236.252 378.793 239.89 374 243.661C361.176 253.75 344.005 269.29 326 263.034C323.252 262.079 320.535 260.623 318.001 259.204C311.252 255.424 306.432 247.796 309.988 240C312.502 234.49 317.899 230.451 321.816 226C328.088 218.871 333.629 211.02 338.681 203C342.162 197.475 351.74 182.29 342.852 177.028C339.551 175.073 333.693 175.831 330 176.043C324.056 176.384 318.801 179.753 314 183.029C300.788 192.042 289.961 208.334 286.425 224C285.462 228.27 284.238 232.614 284.039 237C283.867 240.798 284.801 245.464 282.972 248.961C280.485 253.718 274.146 258.038 270 261.334C261.766 267.879 252.795 274.44 243 278.396C239.595 279.771 234.83 282.082 231.263 279.968C224.461 275.936 224.703 265.628 225.576 259C227.766 242.363 234.885 227.582 244.884 214C247.822 210.009 252.799 205.728 254.382 201.001C255.246 198.419 254.67 195.163 251.772 194.322C248.179 193.279 244.946 195.308 241.83 196.718C235.193 199.722 229.606 202.859 224 207.59C215.2 215.017 208.377 224.742 203.248 235C201 239.497 199.78 244.747 197.157 249C191.378 258.374 182.78 268.212 174.996 275.996C168.836 282.156 161.77 288.183 154 292.215C150.941 293.802 147.414 295.583 144.004 293.957C136.893 290.567 134.904 280.978 133.615 274C132.708 269.091 131.147 262.935 132.43 258C133.777 252.818 138.406 248.483 141.186 244C147.32 234.107 153.454 222.568 155.535 211C157.537 199.882 158.307 180.908 144 178.329C122.371 174.431 117.833 203.469 114.13 219C111.085 231.771 110.346 244.986 109.171 258C108.804 262.055 110.791 267.005 109.386 270.83C107.39 276.266 100.357 281.84 96 285.381C82.0655 296.709 65.3454 305.368 47 301z"/>
<path style="fill:#b8ddfc; stroke:none;" d="M133 178C136.716 178.893 141.113 178.003 145 178C141.195 176.403 136.898 176.848 133 178z"/>
<path style="fill:#d0e5fb; stroke:none;" d="M145.667 178.333C145.222 178.778 146.278 178.722 146.333 178.667C146.778 178.222 145.722 178.278 145.667 178.333z"/>
<path style="fill:#bfdffd; stroke:none;" d="M346 182L346 187C346.83 184.97 346.83 184.03 346 182z"/>
<path style="fill:#fbeef2; stroke:none;" d="M1277 182C1276.6 185.642 1276.99 189.322 1277 193C1278.43 189.59 1278.43 185.41 1277 182z"/>
<path style="fill:#b4ddfd; stroke:none;" d="M335 183C336.506 183.683 337.315 183.826 339 184C337.494 183.317 336.685 183.174 335 183z"/>
<path style="fill:#e3f1fc; stroke:none;" d="M331 185C333.631 185.676 335.71 185.389 338 187C339.586 182.792 333.322 184.245 331 185z"/>
<path style="fill:#ffffff; stroke:none;" d="M309 223C313.809 220.756 316.673 216.885 320.169 213C326.92 205.499 337.42 195.607 338 185C319.782 185.794 309.352 206.466 309 223z"/>
<path style="fill:#b3dcfc; stroke:none;" d="M139 186C140.769 186.779 142.036 186.912 144 187C142.231 186.221 140.964 186.088 139 186z"/>
<path style="fill:#f9e4ed; stroke:none;" d="M1141 186C1142.77 186.779 1144.04 186.912 1146 187C1144.23 186.221 1142.96 186.088 1141 186z"/>
<path style="fill:#ffffff; stroke:none;" d="M131 244C135.435 239.905 137.806 234.407 140.308 229C144.421 220.108 147.877 211.987 147.996 202C148.052 197.288 149.209 187.296 142.029 187.296C135.995 187.296 135.611 196.735 134.999 201C132.94 215.362 131 229.434 131 244z"/>
<path style="fill:#c2e1fc; stroke:none;" d="M156 191L156 206C157.74 201.852 157.74 195.148 156 191z"/>
<path style="fill:#c2e0ff; stroke:none;" d="M242.667 196.333C242.222 196.778 243.278 196.722 243.333 196.667C243.778 196.222 242.722 196.278 242.667 196.333z"/>
<path style="fill:#fae6ec; stroke:none;" d="M1072 197L1072 204C1073.06 201.466 1073.06 199.534 1072 197z"/>
<path style="fill:#f7dce4; stroke:none;" d="M1102 197L1102 215C1103.95 210.349 1103.95 201.651 1102 197z"/>
<path style="fill:#cbe7fc; stroke:none;" d="M255 198L255 202C255.71 200.24 255.71 199.76 255 198z"/>
<path style="fill:#fde2eb; stroke:none;" d="M1151 199C1153.05 199.874 1154.75 199.953 1157 200C1154.95 199.126 1153.25 199.047 1151 199z"/>
<path style="fill:#f9e4eb; stroke:none;" d="M1171 202L1171 207C1171.83 204.97 1171.83 204.03 1171 202z"/>
<path style="fill:#d1e9fd; stroke:none;" d="M134.333 203.667C134.278 203.722 134.222 204.778 134.667 204.333C134.722 204.278 134.778 203.222 134.333 203.667z"/>
<path style="fill:#fcdce9; stroke:none;" d="M1674 204C1676.16 204.676 1677.73 204.387 1680 204C1677.76 203.189 1676.35 203.471 1674 204z"/>
<path style="fill:#fbedf2; stroke:none;" d="M1656 205C1660.47 206.876 1666.18 206 1671 206C1666.53 204.124 1660.82 205 1656 205z"/>
<path style="fill:#eae7fb; stroke:none;" d="M429 206C429.031 207.832 428.921 207.559 430 209C429.749 207.548 429.685 207.248 429 206z"/>
<path style="fill:#e6e2fb; stroke:none;" d="M880 206L880 213C881.06 210.466 881.06 208.534 880 206z"/>
<path style="fill:#e2dbfd; stroke:none;" d="M906 206L906 210C906.71 208.24 906.71 207.76 906 206z"/>
<path style="fill:#d6ecfd; stroke:none;" d="M147 208L147 211C147.696 209.446 147.696 209.554 147 208z"/>
<path style="fill:#e7e4fc; stroke:none;" d="M807 208L807 213C807.83 210.97 807.83 210.03 807 208z"/>
<path style="fill:#efecfd; stroke:none;" d="M458 210L458 233C460.284 227.557 460.284 215.443 458 210z"/>
<path style="fill:#fbecf1; stroke:none;" d="M1071 210L1071 222C1072.51 218.396 1072.51 213.604 1071 210z"/>
<path style="fill:#faeaf3; stroke:none;" d="M1538 210C1545.08 214.322 1556.17 213.865 1564 212C1560.28 210.855 1555.94 212.129 1552 211.961C1547.28 211.76 1542.71 210.375 1538 210z"/>
<path style="fill:#efecfd; stroke:none;" d="M588 214L588 229C589.74 224.852 589.74 218.148 588 214z"/>
<path style="fill:#d7ebfd; stroke:none;" d="M420 215L420 219C420.71 217.24 420.71 216.76 420 215z"/>
<path style="fill:#e0dbfc; stroke:none;" d="M428 215L428 232C429.883 227.514 429.883 219.486 428 215M565 215L565 220C565.83 217.97 565.83 217.03 565 215z"/>
<path style="fill:#fbecf1; stroke:none;" d="M1102 215L1102 225C1103.35 221.793 1103.35 218.207 1102 215z"/>
<path style="fill:#f1efff; stroke:none;" d="M857 218L857 226C858.161 223.23 858.161 220.77 857 218z"/>
<path style="fill:#deeffd; stroke:none;" d="M308 221C308.406 223.092 308.217 223.02 310 224C309.309 222.612 309.015 222.139 308 221z"/>
<path style="fill:#c1e2f9; stroke:none;" d="M131 224L131 229C131.83 226.97 131.83 226.03 131 224z"/>
<path style="fill:#f9e2ea; stroke:none;" d="M1368 224C1369.77 224.779 1371.04 224.912 1373 225C1371.23 224.221 1369.96 224.088 1368 224z"/>
<path style="fill:#bce0fa; stroke:none;" d="M112.333 227.667C112.278 227.722 112.222 228.778 112.667 228.333C112.722 228.278 112.778 227.222 112.333 227.667z"/>
<path style="fill:#c9e3fb; stroke:none;" d="M285.333 227.667C285.278 227.722 285.222 228.778 285.667 228.333C285.722 228.278 285.778 227.222 285.333 227.667z"/>
<path style="fill:#f4f2ff; stroke:none;" d="M808.333 227.667C808.278 227.722 808.222 228.778 808.667 228.333C808.722 228.278 808.778 227.222 808.333 227.667z"/>
<path style="fill:#f8d4e3; stroke:none;" d="M1656 229C1660.97 231.087 1667.64 230 1673 230C1668.03 227.913 1661.36 229 1656 229z"/>
<path style="fill:#e2dff9; stroke:none;" d="M747 230L747 240C748.346 236.793 748.346 233.207 747 230z"/>
<path style="fill:#d7edff; stroke:none;" d="M111.333 232.667C111.278 232.722 111.222 233.778 111.667 233.333C111.722 233.278 111.778 232.222 111.333 232.667z"/>
<path style="fill:#e5defb; stroke:none;" d="M960 234C961.769 234.779 963.036 234.912 965 235C963.231 234.221 961.964 234.088 960 234z"/>
<path style="fill:#fae9ed; stroke:none;" d="M1448 234C1451.16 235.327 1454.59 235 1458 235C1454.84 233.673 1451.41 234 1448 234z"/>
<path style="fill:#d6eafc; stroke:none;" d="M110 240L110 243C110.696 241.446 110.696 241.554 110 240z"/>
<path style="fill:#b7dcfc; stroke:none;" d="M283 243L283 250C284.059 247.466 284.059 245.534 283 243z"/>
<path style="fill:#fdeff0; stroke:none;" d="M1304 244C1307.43 245.44 1311.3 245 1315 245C1311.57 243.56 1307.7 244 1304 244z"/>
<path style="fill:#edeafe; stroke:none;" d="M480 249C482.613 250.098 485.164 249.993 488 250C485.387 248.902 482.836 249.007 480 249z"/>
<path style="fill:#cde6fc; stroke:none;" d="M109 250L109 256C109.951 253.715 109.951 252.285 109 250z"/>
<path style="fill:#e4dffd; stroke:none;" d="M582 255C584.052 255.874 585.747 255.953 588 256C585.948 255.126 584.253 255.047 582 255z"/>
<path style="fill:#b7dcfc; stroke:none;" d="M225 259L225 272C226.591 268.209 226.591 262.791 225 259z"/>
<path style="fill:#e0dbfc; stroke:none;" d="M654 262C657.959 263.661 662.737 263 667 263C663.041 261.339 658.263 262 654 262z"/>
<path style="fill:#eaf5fc; stroke:none;" d="M326 263C330.974 265.087 337.638 264 343 264C338.026 261.913 331.362 263 326 263z"/>
<path style="fill:#bfe1fb; stroke:none;" d="M132 264L132 267C132.696 265.446 132.696 265.554 132 264z"/>
<path style="fill:#b4d9fc; stroke:none;" d="M109 265L109 273C110.161 270.23 110.161 267.77 109 265z"/>
<path style="fill:#e3defc; stroke:none;" d="M469 270C471.89 271.213 474.874 270.998 478 271C475.11 269.787 472.126 270.002 469 270z"/>
<path style="fill:#cee7fd; stroke:none;" d="M133 271L133 274C133.696 272.446 133.696 272.554 133 271z"/>
<path style="fill:#c3e2fb; stroke:none;" d="M196 276L196 279C196.696 277.446 196.696 277.554 196 276z"/>
<path style="fill:#bfe3ff; stroke:none;" d="M134.333 277.667C134.278 277.722 134.222 278.778 134.667 278.333C134.722 278.278 134.778 277.222 134.333 277.667z"/>
<path style="fill:#d8ecfe; stroke:none;" d="M230.667 280.333C230.222 280.778 231.278 280.722 231.333 280.667C231.778 280.222 230.722 280.278 230.667 280.333z"/>
<path style="fill:#c4e2fb; stroke:none;" d="M321 290C324.163 291.327 327.586 291 331 291C327.837 289.673 324.414 290 321 290z"/>
<path style="fill:#b5dbfc; stroke:none;" d="M41 294C42.506 294.683 43.3148 294.826 45 295C43.494 294.317 42.6852 294.174 41 294z"/>
<path style="fill:#cae6fb; stroke:none;" d="M48.6667 301.333C48.2222 301.778 49.2778 301.722 49.3333 301.667C49.7778 301.222 48.7222 301.278 48.6667 301.333z"/>
<path style="fill:#d5ebfc; stroke:none;" d="M234.667 303.333C234.222 303.778 235.278 303.722 235.333 303.667C235.778 303.222 234.722 303.278 234.667 303.333z"/>
<path style="fill:#bee1fd; stroke:none;" d="M222 304C224.052 304.874 225.747 304.953 228 305C225.948 304.126 224.253 304.047 222 304z"/>
<path style="fill:#b8dcf9; stroke:none;" d="M52 310C56.2165 311.769 61.4589 311 66 311C61.7835 309.231 56.5411 310 52 310z"/>
<path style="fill:#cae6fc; stroke:none;" d="M144.667 314.333C144.222 314.778 145.278 314.722 145.333 314.667C145.778 314.222 144.722 314.278 144.667 314.333z"/>
<path style="fill:#d9ecfc; stroke:none;" d="M137 315C138.506 315.683 139.315 315.826 141 316C139.494 315.317 138.685 315.174 137 315z"/>
</svg>
